<mxfile host="app.diagrams.net" modified="2023-04-11T15:50:03.704Z" agent="Mozilla/5.0 (Windows NT 10.0; Win64; x64) AppleWebKit/537.36 (KHTML, like Gecko) Chrome/111.0.0.0 Safari/537.36" etag="ZZurFK6IG0rEnylJMuxz" version="21.1.5" type="device">
  <diagram name="Page-1" id="DYNQGNt21_MUvt0wZL55">
    <mxGraphModel dx="794" dy="379" grid="1" gridSize="10" guides="1" tooltips="1" connect="1" arrows="1" fold="1" page="1" pageScale="1" pageWidth="850" pageHeight="1100" math="0" shadow="0">
      <root>
        <mxCell id="0" />
        <mxCell id="1" parent="0" />
        <mxCell id="YpG3kHgkEUc7mpkCyyQj-2" value="" style="rounded=0;whiteSpace=wrap;html=1;dashed=1;dashPattern=1 1;" vertex="1" parent="1">
          <mxGeometry x="180" y="220" width="690" height="390" as="geometry" />
        </mxCell>
        <mxCell id="YpG3kHgkEUc7mpkCyyQj-1" value="" style="image;aspect=fixed;html=1;points=[];align=center;fontSize=12;image=img/lib/azure2/networking/Virtual_Networks.svg;" vertex="1" parent="1">
          <mxGeometry x="196.6" y="210" width="33.4" height="19.94" as="geometry" />
        </mxCell>
        <mxCell id="YpG3kHgkEUc7mpkCyyQj-24" value="" style="rounded=0;whiteSpace=wrap;html=1;" vertex="1" parent="1">
          <mxGeometry x="220" y="270" width="620" height="160" as="geometry" />
        </mxCell>
        <mxCell id="YpG3kHgkEUc7mpkCyyQj-3" value="App Service Subnet" style="rounded=0;whiteSpace=wrap;html=1;dashed=1;fillColor=#dae8fc;strokeColor=#6c8ebf;fontSize=10;" vertex="1" parent="1">
          <mxGeometry x="240" y="280" width="120" height="60" as="geometry" />
        </mxCell>
        <mxCell id="YpG3kHgkEUc7mpkCyyQj-4" value="Application Gateway Subnet" style="rounded=0;whiteSpace=wrap;html=1;dashed=1;fillColor=#dae8fc;strokeColor=#6c8ebf;fontSize=10;" vertex="1" parent="1">
          <mxGeometry x="390" y="280" width="120" height="60" as="geometry" />
        </mxCell>
        <mxCell id="YpG3kHgkEUc7mpkCyyQj-5" value="Data Factory Subnet" style="rounded=0;whiteSpace=wrap;html=1;dashed=1;fillColor=#dae8fc;strokeColor=#6c8ebf;fontSize=10;" vertex="1" parent="1">
          <mxGeometry x="540" y="280" width="120" height="60" as="geometry" />
        </mxCell>
        <mxCell id="YpG3kHgkEUc7mpkCyyQj-6" value="SQL Database Subnet" style="rounded=0;whiteSpace=wrap;html=1;dashed=1;fillColor=#dae8fc;strokeColor=#6c8ebf;fontSize=10;" vertex="1" parent="1">
          <mxGeometry x="690" y="280" width="120" height="60" as="geometry" />
        </mxCell>
        <mxCell id="YpG3kHgkEUc7mpkCyyQj-7" value="BLOB Storage Subnet" style="rounded=0;whiteSpace=wrap;html=1;dashed=1;fillColor=#dae8fc;strokeColor=#6c8ebf;fontSize=10;" vertex="1" parent="1">
          <mxGeometry x="450" y="360" width="120" height="60" as="geometry" />
        </mxCell>
        <mxCell id="YpG3kHgkEUc7mpkCyyQj-9" value="" style="rounded=0;whiteSpace=wrap;html=1;" vertex="1" parent="1">
          <mxGeometry x="290" y="520" width="500" height="60" as="geometry" />
        </mxCell>
        <mxCell id="YpG3kHgkEUc7mpkCyyQj-10" value="" style="image;aspect=fixed;html=1;points=[];align=center;fontSize=12;image=img/lib/azure2/networking/Private_Endpoint.svg;" vertex="1" parent="1">
          <mxGeometry x="320" y="535" width="27.28" height="25" as="geometry" />
        </mxCell>
        <mxCell id="YpG3kHgkEUc7mpkCyyQj-11" value="" style="image;aspect=fixed;html=1;points=[];align=center;fontSize=12;image=img/lib/azure2/networking/Private_Endpoint.svg;" vertex="1" parent="1">
          <mxGeometry x="405" y="535" width="27.28" height="25" as="geometry" />
        </mxCell>
        <mxCell id="YpG3kHgkEUc7mpkCyyQj-12" value="" style="image;aspect=fixed;html=1;points=[];align=center;fontSize=12;image=img/lib/azure2/networking/Private_Endpoint.svg;" vertex="1" parent="1">
          <mxGeometry x="487.36" y="535" width="27.28" height="25" as="geometry" />
        </mxCell>
        <mxCell id="YpG3kHgkEUc7mpkCyyQj-13" value="" style="image;aspect=fixed;html=1;points=[];align=center;fontSize=12;image=img/lib/azure2/networking/Private_Endpoint.svg;" vertex="1" parent="1">
          <mxGeometry x="562" y="535" width="27.28" height="25" as="geometry" />
        </mxCell>
        <mxCell id="YpG3kHgkEUc7mpkCyyQj-14" value="" style="image;aspect=fixed;html=1;points=[];align=center;fontSize=12;image=img/lib/azure2/networking/Private_Endpoint.svg;" vertex="1" parent="1">
          <mxGeometry x="729" y="535" width="27.28" height="25" as="geometry" />
        </mxCell>
        <mxCell id="YpG3kHgkEUc7mpkCyyQj-16" value="" style="image;aspect=fixed;html=1;points=[];align=center;fontSize=12;image=img/lib/azure2/networking/Private_Endpoint.svg;" vertex="1" parent="1">
          <mxGeometry x="641.36" y="535" width="27.28" height="25" as="geometry" />
        </mxCell>
        <mxCell id="YpG3kHgkEUc7mpkCyyQj-17" value="Primary VNET" style="text;html=1;strokeColor=none;fillColor=none;align=center;verticalAlign=middle;whiteSpace=wrap;rounded=0;fontStyle=1" vertex="1" parent="1">
          <mxGeometry x="220" y="199.94" width="110" height="30" as="geometry" />
        </mxCell>
        <mxCell id="YpG3kHgkEUc7mpkCyyQj-18" value="Private Endpoint" style="text;html=1;strokeColor=none;fillColor=none;align=center;verticalAlign=middle;whiteSpace=wrap;rounded=0;fontSize=9;" vertex="1" parent="1">
          <mxGeometry x="280" y="554" width="110" height="30" as="geometry" />
        </mxCell>
        <mxCell id="YpG3kHgkEUc7mpkCyyQj-19" value="Private Endpoint" style="text;html=1;strokeColor=none;fillColor=none;align=center;verticalAlign=middle;whiteSpace=wrap;rounded=0;fontSize=9;" vertex="1" parent="1">
          <mxGeometry x="363.64" y="554" width="110" height="30" as="geometry" />
        </mxCell>
        <mxCell id="YpG3kHgkEUc7mpkCyyQj-20" value="Private Endpoint" style="text;html=1;strokeColor=none;fillColor=none;align=center;verticalAlign=middle;whiteSpace=wrap;rounded=0;fontSize=9;" vertex="1" parent="1">
          <mxGeometry x="445" y="554" width="110" height="30" as="geometry" />
        </mxCell>
        <mxCell id="YpG3kHgkEUc7mpkCyyQj-21" value="Private Endpoint" style="text;html=1;strokeColor=none;fillColor=none;align=center;verticalAlign=middle;whiteSpace=wrap;rounded=0;fontSize=9;" vertex="1" parent="1">
          <mxGeometry x="520.64" y="554" width="110" height="30" as="geometry" />
        </mxCell>
        <mxCell id="YpG3kHgkEUc7mpkCyyQj-22" value="Private Endpoint" style="text;html=1;strokeColor=none;fillColor=none;align=center;verticalAlign=middle;whiteSpace=wrap;rounded=0;fontSize=9;" vertex="1" parent="1">
          <mxGeometry x="600" y="554" width="110" height="30" as="geometry" />
        </mxCell>
        <mxCell id="YpG3kHgkEUc7mpkCyyQj-23" value="Private Endpoint" style="text;html=1;strokeColor=none;fillColor=none;align=center;verticalAlign=middle;whiteSpace=wrap;rounded=0;fontSize=9;" vertex="1" parent="1">
          <mxGeometry x="685" y="554" width="110" height="30" as="geometry" />
        </mxCell>
        <mxCell id="YpG3kHgkEUc7mpkCyyQj-25" value="Private Link" style="text;html=1;strokeColor=none;fillColor=none;align=center;verticalAlign=middle;whiteSpace=wrap;rounded=0;fontSize=10;" vertex="1" parent="1">
          <mxGeometry x="470" y="490" width="80" height="30" as="geometry" />
        </mxCell>
        <mxCell id="YpG3kHgkEUc7mpkCyyQj-26" value="" style="endArrow=classic;startArrow=classic;html=1;rounded=0;entryX=1.075;entryY=0.267;entryDx=0;entryDy=0;entryPerimeter=0;" edge="1" parent="1">
          <mxGeometry width="50" height="50" relative="1" as="geometry">
            <mxPoint x="500" y="434" as="sourcePoint" />
            <mxPoint x="499.326" y="495.67499999999995" as="targetPoint" />
          </mxGeometry>
        </mxCell>
        <mxCell id="YpG3kHgkEUc7mpkCyyQj-27" value="" style="shape=image;verticalLabelPosition=bottom;labelBackgroundColor=default;verticalAlign=top;aspect=fixed;imageAspect=0;image=data:image/svg+xml,PHN2ZyB4bWxucz0iaHR0cDovL3d3dy53My5vcmcvMjAwMC9zdmciIHZpZXdCb3g9IjAgMCAxOCAxOCIgaGVpZ2h0PSIxOCIgd2lkdGg9IjE4Ij48ZGVmcz48bGluZWFyR3JhZGllbnQgZ3JhZGllbnRVbml0cz0idXNlclNwYWNlT25Vc2UiIHkyPSIxNi44OTIiIHgyPSI5LjA0OSIgeTE9IjEuMTk2IiB4MT0iOS4wNDkiIGlkPSJlMjhmNmVmMS1mZDMxLTQ3NTEtOTEwOC1mOTQ3MjljMGYxNjkiPjxzdG9wIHN0b3AtY29sb3I9IiMwMDc4ZDQiIG9mZnNldD0iMCIvPjxzdG9wIHN0b3AtY29sb3I9IiMwMDViYTEiIG9mZnNldD0iMSIvPjwvbGluZWFyR3JhZGllbnQ+PC9kZWZzPjxnIGlkPSJlYjM2OTU2YS0zMjEyLTRlMDktYjA3Mi1hZTdjZGI4ZGQ4N2EiPjxnPjxnPjxwYXRoIGZpbGw9InVybCgjZTI4ZjZlZjEtZmQzMS00NzUxLTkxMDgtZjk0NzI5YzBmMTY5KSIgZD0iTTE2LjQ0NCw4Ljk2OGE3LjM5Miw3LjM5MiwwLDAsMS03LjM5LDcuMzksNy41LDcuNSwwLDAsMS0uOTYtLjA2LDcuMTg0LDcuMTg0LDAsMCwxLTIuODItLjk4bC0uMDgtLjU5LS4wOS0uNy0uMDYtLjQzYS43MzUuNzM1LDAsMCwwLS4yMy0uNDEuNjM4LjYzOCwwLDAsMC0uODMuMDVsLS4yMS4yMS0uMzMuMzNhNy4zMzEsNy4zMzEsMCwwLDEtMS43OC00LjU1LDIuMzQ4LDIuMzQ4LDAsMCwxLS4wMS0uMjYsNy40LDcuNCwwLDAsMSw3LjQtNy40QTcuMjUyLDcuMjUyLDAsMCwxLDEyLjgsMi42bC4wOC42LjEuNjkuMDcuNTFhLjY3Mi42NzIsMCwwLDAsLjE3LjM2LjY0Ny42NDcsMCwwLDAsLjQ0LjE4LjYuNiwwLDAsMCwuNDQtLjE4bC41Ny0uNTdBNy4yNzgsNy4yNzgsMCwwLDEsMTYuNDQ0LDguOTY4WiIvPjxwYXRoIGZpbGw9IiM1ZWEwZWYiIGQ9Ik0xNC41MTQsNC43YTEuNDYyLDEuNDYyLDAsMCwwLS4xNi0uMTlsLS4yNS4yNWEuNi42LDAsMCwxLS40NC4xOC42NDcuNjQ3LDAsMCwxLS40NC0uMTgsOC4wNzQsOC4wNzQsMCwwLDEtMS4xNS4zMmwtLjExLjAyLS4wNC0uMTFhOC4xMTUsOC4xMTUsMCwwLDAtLjc5LTEuODhsLS4xNy0uMjkuMzIuMTJhNi4yOTQsNi4yOTQsMCwwLDEsMS43Ljk1bC0uMS0uNjlhNyw3LDAsMCwwLTMuNDEtMS4xNmMtLjEzLDAtLjI4LS4wMS0uNDItLjAxcy0uMy4wMS0uNDIuMDFhNi43MTUsNi43MTUsMCwwLDAtLjkuMTIsNy4wMTYsNy4wMTYsMCwwLDAtMy45LDIuMjNjLS4wOC4xLS4xNy4yLS4yNS4zMWE2Ljg2Niw2Ljg2NiwwLDAsMC0xLjQ3LDQuMjcsMy4wMjcsMy4wMjcsMCwwLDAsLjAyLjQ0LDYuODI5LDYuODI5LDAsMCwwLDEuNDUsMy44M2MuMDYuMDcuMTIuMTQuMTkuMjFsLjIxLS4yMWEuNjM4LjYzOCwwLDAsMSwuODMtLjA1LDEwLjMwOSwxMC4zMDksMCwwLDEsMS4yMi0uMzNsLjExLS4wMy4wMy4xMWE4LjE3OCw4LjE3OCwwLDAsMCwuNzksMS44OGwuMTguM0w2LjgxNCwxNWE2LjMsNi4zLDAsMCwxLTEuNzEtLjk3bC4wOS43YTcuMDE4LDcuMDE4LDAsMCwwLDIuNTQsMS4wNWMuMDcuMDEuMTUuMDMuMjIuMDQuMjIuMDMuNDUuMDYuNjguMDcuMTIuMDEuMjYuMDIuNDIuMDJzLjI5LS4wMS40Mi0uMDJhNy4xMjYsNy4xMjYsMCwwLDAsLjktLjExLDYuOTksNi45OSwwLDAsMCwzLjg5LTIuMjNjLjA4LS4xLjE3LS4yMS4yNi0uMzFhNi44NzcsNi44NzcsMCwwLDAsMS40Ni00LjI3QTYuODA2LDYuODA2LDAsMCwwLDE0LjUxNCw0LjdabS02LjU4LTIuMDQuMDMtLjAzTDgsMi42MThhNy4wNjYsNy4wNjYsMCwwLDEsMS4wNC0uMDgsNy40NTIsNy40NTIsMCwwLDEsMS4wNi4wOGwuMDQuMDEuMDIuMDNhNi4wNiw2LjA2LDAsMCwxLDEuMjYsMi40bC4wNC4xMy0uMTQuMDJhMTUuMDQ1LDE1LjA0NSwwLDAsMS0yLjI3LjE3LDE1LjI4MSwxNS4yODEsMCwwLDEtMi4yOC0uMTdsLS4xMy0uMDIuMDQtLjEzQTUuOTMxLDUuOTMxLDAsMCwxLDcuOTM0LDIuNjU4Wm0tMi4wNyw4LjkyaC4wMnYuMTFjLjAzLjE4LjA3LjM2LjExLjU0bC4wMi4xMi0uMTIuMDJhMTEuNDQ1LDExLjQ0NSwwLDAsMC0xLjc5LjU1bC0uMDkuMDQtLjA2LS4wN0E2LjQ0Myw2LjQ0MywwLDAsMSwyLjY2NCw5LjdhNS44NDYsNS44NDYsMCwwLDEtLjA0LS43Myw2LjQ2NCw2LjQ2NCwwLDAsMSwxLjMzLTMuOTJsLjA2LS4wOC4wOS4wNGExMC42ODgsMTAuNjg4LDAsMCwwLDEuNzkuNTVsLjEyLjAzLS4wMi4xMmExNC44MSwxNC44MSwwLDAsMC0uMzUsMy4yNkExNC45MDksMTQuOTA5LDAsMCwwLDUuODY0LDExLjU3OFptLjE3LTYuNWE5LjA5Miw5LjA5MiwwLDAsMS0xLjUtLjQ0bC0uMTgtLjA2LjEzLS4xNGE2LjQ4MSw2LjQ4MSwwLDAsMSwyLjMzLTEuNWwuMzMtLjEyLS4xOC4yOWE4LjM3MSw4LjM3MSwwLDAsMC0uNzksMS44OGwtLjAzLjExWm0uNDgsNy4xOC0uMDMtLjEyYTE0LjQ3OSwxNC40NzksMCwwLDEtLjMzLTMuMTcsMTQuNTcyLDE0LjU3MiwwLDAsMSwuMzMtMy4xOGwuMDMtLjExLjExLjAyYTE2LjA1MiwxNi4wNTIsMCwwLDAsMi40My4xOSwxNi4xNTQsMTYuMTU0LDAsMCwwLDIuNDMtLjE5bC4xMS0uMDIuMDIuMTFhMTMuOTcsMTMuOTcsMCwwLDEsLjM0LDMuMTgsMTMuODgxLDEzLjg4MSwwLDAsMS0uMzQsMy4xN2wtLjAyLjEyLS4xMS0uMDJhMTQuNzY5LDE0Ljc2OSwwLDAsMC0yLjQzLS4xOSwxNC42ODMsMTQuNjgzLDAsMCwwLTIuNDMuMTlabTMuNjUsMy4wMi0uMDIuMDNIMTAuMWE2LjIsNi4yLDAsMCwxLTEuMDUuMDlBNi4wMzEsNi4wMzEsMCwwLDEsOCwxNS4zMDhsLS4wNC0uMDEtLjAzLS4wM2EzLjE2OCwzLjE2OCwwLDAsMS0uNDYtLjYsNi40MTEsNi40MTEsMCwwLDEtLjY2LTEuMzksMy4xMzYsMy4xMzYsMCwwLDEtLjEzLS40bC0uMDQtLjE0LjEzLS4wMmExNS4zLDE1LjMsMCwwLDEsMi4yOC0uMTYsMTUuMDcxLDE1LjA3MSwwLDAsMSwyLjI3LjE2bC4xNC4wMi0uMDQuMTRBNiw2LDAsMCwxLDEwLjE2NCwxNS4yNzhabTMuNDUtMS43OUE2LjQyMSw2LjQyMSwwLDAsMSwxMS4yODQsMTVsLS4zMi4xMi4xNy0uM2E3LjcsNy43LDAsMCwwLC43OS0xLjg4bC4wNC0uMTEuMTEuMDNhMTAuMTg3LDEwLjE4NywwLDAsMSwxLjUuNDNsLjE3LjA3Wm0uNTMtLjYtLjA1LjA3LS4wOS0uMDRhMTAuODc3LDEwLjg3NywwLDAsMC0xLjgtLjU1bC0uMTItLjAyLjAzLS4xMmExNC45NDQsMTQuOTQ0LDAsMCwwLC4zNS0zLjI2LDE0Ljg3NywxNC44NzcsMCwwLDAtLjM1LTMuMjZsLS4wMy0uMTIuMTItLjAzYTEwLjg3NywxMC44NzcsMCwwLDAsMS44LS41NWwuMDgtLjA0LjA2LjA4YTYuNCw2LjQsMCwwLDEsMCw3Ljg0WiIvPjxwYXRoIGZpbGw9IiMwMDMwNjciIGQ9Ik05Ljg0MSwxMS4wNzJjLS4yNjMsMC0uNTI3LDAtLjc5LDBzLS41MjcsMC0uNzkxLDBhLjI1NC4yNTQsMCwwLDEtLjI0NS0uMzMyYy4wNDEtLjE0Ni40MTctMS4zODkuNTYyLTEuODY5YTEuMDQ1LDEuMDQ1LDAsMSwxLC45NDgsMGMuMTQ1LjQ4LjUyLDEuNzIzLjU2MiwxLjg2OUEuMjU1LjI1NSwwLDAsMSw5Ljg0MSwxMS4wNzJaIi8+PC9nPjxwYXRoIGZpbGw9IiM1MGU2ZmYiIGQ9Ik0xOCw4Ljk1OGE4Ljk0Miw4Ljk0MiwwLDAsMS0yLjY0LDYuMzYuNTc4LjU3OCwwLDAsMS0uNC4xNy41NjEuNTYxLDAsMCwxLS40LS4xNy41NjcuNTY3LDAsMCwxLDAtLjgsNy44MzksNy44MzksMCwwLDAsMi4zLTUuNTYsNy43NDMsNy43NDMsMCwwLDAtMi4xNi01LjRsLS45LjlhLjIuMiwwLDAsMS0uMzMtLjExbC0uNDItMy4wNGEuMTkyLjE5MiwwLDAsMSwuMjItLjIybDMuMDQuNDFhLjIuMiwwLDAsMSwuMTEuMzRsLS45MS45MUE4LjksOC45LDAsMCwxLDE4LDguOTU4Wm0tMTMuMzksNC43YS4yLjIsMCwwLDAtLjMzLS4xMmwtLjkxLjkxQTcuODU5LDcuODU5LDAsMCwxLDMuNDM0LDMuNGEuNTYyLjU2MiwwLDAsMCwwLS44MS41NjcuNTY3LDAsMCwwLS44LDAsOS4wMTgsOS4wMTgsMCwwLDAtLjA2LDEyLjY3bC0uOTEuOTFhLjE5Mi4xOTIsMCwwLDAsLjExLjMzbDMuMDQuNDJhLjIuMiwwLDAsMCwuMjItLjIzWiIvPjwvZz48L2c+PC9zdmc+;" vertex="1" parent="1">
          <mxGeometry x="196.6" y="460" width="30" height="30" as="geometry" />
        </mxCell>
        <mxCell id="YpG3kHgkEUc7mpkCyyQj-28" value="Private DNS Resolver" style="text;html=1;strokeColor=none;fillColor=none;align=center;verticalAlign=middle;whiteSpace=wrap;rounded=0;fontSize=10;" vertex="1" parent="1">
          <mxGeometry x="171.6" y="490" width="80" height="30" as="geometry" />
        </mxCell>
        <mxCell id="YpG3kHgkEUc7mpkCyyQj-30" value="" style="image;aspect=fixed;html=1;points=[];align=center;fontSize=12;image=img/lib/azure2/networking/Private_Link.svg;" vertex="1" parent="1">
          <mxGeometry x="450" y="495" width="21.82" height="20" as="geometry" />
        </mxCell>
        <mxCell id="YpG3kHgkEUc7mpkCyyQj-33" value="" style="shape=image;verticalLabelPosition=bottom;labelBackgroundColor=default;verticalAlign=top;aspect=fixed;imageAspect=0;image=data:image/png,iVBORw0KGgoAAAANSUhEUgAAAPIAAADQCAMAAAAK0syrAAAAhFBMVEX+/v729vYAAAD////39/f6+vrW1tbz8/PLy8vw8PDq6urm5uYtLS0qKirt7e1EREQ+Pj6rq6uGhoa5ubmvr6/g4OCQkJC8vLx2dnZ9fX2Xl5fHx8chISFwcHA3NzfT09NNTU0QEBBjY2OioqJaWloZGRkNDQ0kJCRRUVGbm5tpaWl6enqISIOGAAAUIElEQVR4nO2dC7uiLhPAVVBTO1leK0vLLqfL9/9+L2AlIF4wz+n47n+eZ3fb0uInMAzDDCjwnxMFqv+Y/If8L8h/yP+C/BQyUox6KVhPFm+//vqc/AQypoVOEhyuEZHrws9sSMAH/60eMjgy1FUrXNwv6fdee8r59JUePd+xoN78a/D1zw8+nIGRIXTiaKfVyOWa2O01jRoJ5PrDoDIkMiqosT7u64CxbG6HUK/nIF3CCiexvzgcFkGcZDN98A4xGDIqrTnZTpt4C0k9wxQyoC+YhXF0nH9tTvsz6g770+Ybd4jQNhsek3xJB0O2klU7L5F9lFX6KmzqEtOVnz2p3y/uIMh4RHJWHWr4Ke7aYhQZ0nlJdDw13DFfxdZAVT0Q8iyYdwfGcknK+kK3x3kTL5H9fBEOosiHQIbQ2MoBY4LIflgn0PHzbvek13CAih4AGcK4dlhqkq2BGzfUk/YafslxYemfR4bWtXuRGUljpARCT+7uY2a+WeK3kaHj1RRuesmXKyTL4+5LfMU+sOUbyHTtvFfkd5F1+34WwdwOseHMsC6Hph1m/vooKv5XXvMwGmUbttitP4oMnVu1SOkysRXAie74N4lhrFHc+B3V/R4yDKuq+nIwMK9CC/ofps7Wbiek03R+yY8XN93UXPAdvMH8FjK0Kv04PTg8bwkOlDCqo3jK+eIFmRE6tu2EpEN8C5kX/ZnfQYZmxJXkKzIZXsD/C4CzrNfQ+/k9tvgeATOhXRb1VtxvIEM14GZNt0SpqWDqKcCgrnXnQVjpEkQnWL7Amj30ref+yFDPuLLfZ6S8LdSodV9EwLtgVtMl0Ntm1b779ntaYm8g2+y4kwbtVUyuQABRZVLtxtUKZqkzHnrj9zPEeiNDuGYL8GzU7dwKMA9s6fdeiHgb70QP6pqyd6VGr7L3RtYnTPea+g11VKlpoDPP68uHXR6UknE94jbrU/i+yNBmbJB00pn4UfxDabTlRtPNoHxQQF2xPcKzepS+N7LPDBx+l/bMgJQD3NbpfC8w14x5+x336M79kCG0mOnAWpYYlV6NSOn30UziXgCvTDXvelRzz1rWF/QP301pYtxMs2i7XTc2asFdyppp29ffQoYzeoCaGz2ICbSuN41M4ptYI3duSI/OPZFj2lQO+hCDArrHjbOcZsaGpxxCL2Q4W1I/etR7I/e6C4T0+Pw1kdVgvZD1jBqTN3G/0vcXwNj23u8g08bTso/ueg/ZZBYJZJW2PDLuOpQVdPr1Suab9kGymmWRIVmZoH7w8uuVjJlpe/UoaXZKIONlQdWa2Y5Dt+vFB4gV4FDVLGuCdUVGvFaYBNdVvkunlPbYh59AVhTaCFvLjVKdkFH1mtl6exG4oY5d5kDDC8ioaj7KObZbkZG2gnbmpTUr5Yc+1sQAyJBS2udMqmW3I8NwIXS7Ezkln2nXCoipUgQDIqMebK+bllDSnub1+8g2tc6xHA4Z1fC1eYXh0n2uOzQz5Qr7kppaNCFDy29bJLtZH0MOqGJIjcz1yFAPV8KVAlqintODAZAzqhiZTDWLkIswFCtuBdbm4WcUNkZ2qC63GKKWob1uJ973mikPhGxRhn40ALJubUXLxqy4fq+Z8kDI6r0syeptZAgN4VB8Tndb7xBPMmMSB3EIP9aqFeIEKwu2hRIBUkJkPRMRu6sgs3VqTfBzvEQoM9s9xI76gm4zrgTIeigYm46+o/4BTkqYRZ7v3SqetQUC1yJDo7IymHpkGfQP8SocMsFexnaHENcqsu7kfBf2JvLO15+XCjIy+bcLp7WmK8hQ5aNP3fijeqpWBMho3Lz4s7Y4dw4Z8uugp6jTQvkHZCFCRnKMmx2AHDKECbuIOw0+OPY2Cojrgk6+PRwYVh/nziE77PDkdoj++JCAsD6iyk0aRioWGUI2xudCbOg/Cg38WmRtH4Uda1mfMGFZu+xP6q2HAH3dEPF6q1XdDDKcMSEoiFj5s3WsYOZslU43NZOBY92MkkVmQgNOf7qOsWBjwTbi630nckbOa/zbNDK0GN31IeelnBQhsWESpVXmaSZs2zSyzuiDlToC4kJwbVtxNezRTURtm0KGKl3Jbvi3OzInmDquzPFd0eIzjTx5OzTgo4JjPfk8nost8HMp5SyTDsK4/FWjq0kAsCOudd+rzk8K2aCsmU+sGr8n4BF8wlX0+VoJYi6RdXrJ43P+6TcFgIz1b2wSvju/kCEdjXDyR0qMmdmIIc3lm3aJPKP8wjt7tMh4uYpNcVlzTbtENqirvBETY68+Y1Kl3Ej1QmaifD61njiQADbClIthLpGpGUWqtsSD/3UBE8b+ZDXYExmq1BB1/3SR3xWgLGhDLGeTpZ/IBqW9xmd58QJ0JriVmVO9kJPS2jxNRo+MVBidTXmnHYBPZJ2Ki5yHI+/KWACtjueZCJla4TmOeVR+CmuRXAUNW6f8fL8fiPoDApSAmmHsqBmVCHk1cPjaZx4gYDIDjGZk729OHGULxQTQrPUqsvcW8l9Yb+YF2NTYfCmH5kGQAbDWS68mVGawZyFdy0xoWFhFfqsvA2eufdeM5qqpS36bWExT9g56OeMcNCLfoeRXI2RXmwpzAIGzWg4x+QaT5VZ2sgMMytIuO/MLmQo2ucnkpxVfXiALf7bLVLRDFvBC02QfHbColr16zZpfBidlrOykw8ppZG7jhSZkiUfRC5luumXQ9guZWpuZSk+XS2SsrKiIIVAgP5o8G0pEXoDn39yH5cUPN16AkSWXQQE1n5q/grZfyBllhku7N0tkw7CAml1XkR/iPm4ZPt4MyFAJl52QDwrtiD4z0I2HFaq80HCAHh48L8ieayTo/0G0OiQzAmkbqMKu6Aa5YiVlhGKZQvZCntFdvS8ymKG6cIpUudNBBS9rAH+m+8WUfLMiEc34s9kEvbUFaK7u2etiKrcsFAkIi8RX7RLoADyXvU9y1j+dXLRPeGQVUpFPR0niEtnWtEOOWhH+qX1QIicA6AvMRLpPjpUF7p0JdtgsgTnXVsguSOd4NkesAhASlx2++nxQAHxaDZLINuX3QHNmyCIzc2rZwHIaOdW2IYQGAs9tYDoxYnJw7GO80U6r0LQC9Di2FiDIF20eBQZGnuJNz9SZh9cLcYtAxDvfMsP7nniYLQeNKAfHIT/WvVi0D8yv1LKeUMiB5ISZRtaWZDcUY46zEF7qC5gXnLeGX+G9OfwCGWeo48/mZNkP7yBy0874M1QYl3ykr8/40YFCY0unwl+akCGd4raVNDlp5HMRe6BvtS+k+Z+DFI4YP6qFEg9wYyYQReYzQX6sZl/x8wbK8jkk4Wkv9tL0GaRaken1dLFZ0Q05fQwrKxY5IizFFjgn7VshyHflhVys7eI30WX2XHNnj6uvRaMrkCWL1YzMGCNaJFfNNPLxMQYzyEBBnXMxechU03RCdy2eDkLeFIrpgTz50o7J42L0rKK+tdzcl1V9QoXZu3IGGI28FSLj5fqvp2hP5MKVClTU700aGdlFp+fFSM+vFNAPmdPYfMNmw4Hklmho5KUQGTexF/J0erIoCFzLcxZ5XyJPp99eX2QqtfxExmXI1DK7i8RZqprbkFH/PSJVnE1eojcixydtW147CfvZ2AqgtkxIJ7yNTXQ2nQa2kunN7ci4L4f0Nl5KEzLqy3fIXNwPmbKxXUOAzEwgtfNC5rvbGjZxKx8en8zu20MzsuVqqfMMC9jew37qi1myyCszKfI6pPOEXIn5VAdkAy9uF0FGa2LFNyErKzJQE8tzR2Z2vZBpV/ZKrSLjcF4maFVi84z2hg0g+vkV2cQs/tI2WSMyMVw2CTHMloVj6mF9dS8R/kOvs10rXpFHNTPrsl5nFz6LTJkiyOA8a7t4ghQ0jr6ZRnGA5wsHpQWZbDaQBzHOMiUDJjbZbpNMyo0GKH18Siq+r8dAxYTc79fd/H6AuPs23Lh8L+rSIUMjqjElecXqRBZQGOSUHZdxm3w1uJSkSD9SHGXmOwBQ7XrqiJHRrJlJntl3DeME5iI62NjiiKL4oXbi4h3FnxJk9E7o4Zf7Y7GhGTCiqBgJ0bwyWhT1B4z1urC71fiCp5LTh68YqDgSeS8zeQT0rOEIa5D5gGxt3bFtl46f10N6vaMahv14A4aZYSm0W4h9BV534YssIysz7gD2okjtk0Wny9Gbj/CJBtzWmnvvnQCwEoh+MqIvFL7HXS25IAIcWjEJ1qRKe4TbJDd32n+o7QLQ8i/zTsOXgS4/9rqW2iqP2W6lkielh1zoZxqYfzjBQixkQKc5AlpJV7PhfG7b2/09/HtrbK0CaMfW3KhFJhMNc8Fv9ZtGzrhqWSGupFI8s7GWEXc1z2x6kF60+agAxqjaMHuUVpGhYEdkTXJm9WkBbOLmEtYjv/xg1+o21ofxIANm1yRUycLoPq6mzaCSmzEfTYg20AOm5JGpdkCGMOCzcOqWzP+cPGzcl7hGTaRuBdrgbJL9WMLSQcL0yn1cF4JeYdZnHnPCwlc2DmTsBKfF4/PDGvYIglZMz6vmYwmAY3fdvZC4mOZB6vkBrmh6LiK9AvsZ4VIr0qSSBNi4ExQTH/ehTfpkBTjMlF9w2EMjMr2p6m0kpghrd90F2eqNyHTo+lhyxYBOG15HQZ5nk/qi7U7JRaoPCpuvLzgBoAnZphaptmPR1wqgs0S0qJra2oRMJ0FexxOIz8wbd9VtGBqQ9axcvBiN6aXgVWVqmDpVz/NoQk5K7fUtuSX9JwXQLvtK+l8zMjUfSUczjVI43+alsvtsEzK1dOGOpicreCpF+b3ORm0yrwCZMjePIyJWWnafbUKmhuV8XMgWtWq86ol8GxWyAiidfZGYPI4ZmZpAfvO7f/1fNmymM+95m7MJmXpUl3GtVwCD8lYmEsjUiD4f0yClkCX+l/gSyNSUJB1X5iewKT8Bf65FR4NzMxJf30NwkPNL1hLIlFPkPK7EdRJI9BR+/tg0eQwp11c0LvXVF9mm7hvXDjrApLwbEg2biXybjqoz9+3LKqTX4kbVmftqbBXSaZL5SJy6RJhjeYLu47IKTXolbkwb24GwbJ9nCeuLS7cY01ZJjI3NO/yakendoeaj8WSzM6lN7X5fAmDUsnOKWTKr5pMCKItiJ+EiUFmP3+eO2JEWYFIr4zJeEZXz3mv3sVhgYEKVWsb3Rdo2c07ySJbi+ns4yeo7PTSTVMxP83QQZol5J+PHLoSJeut1BO9vC8kse4kns1pBPmaTpzRvBMYIsya1qe4Y3X42HHtKfPD3md9YeXxcEDI7PG5ezH8VHShUJeP0KOm+rOoJc7AU3hpA+bvACrsBlCY4D7HL0ZZc3O7hT+8Vzu47ehTQdUDmz7LQPLvLWPWZ58LsGEPlacsgQ+z34w7FmE/aze3aZJmfFTY4Rni0abczW31uR/WvqL6iH5lhwPH95M3zeuRvZpNITrx3QAIZVk71SQOryDwVlQufMbCc7veny9unx8ndDsKcLmSxma68xiZXmevKyRDuIhSeeI/TUZOXkds1hXAQATM2oFp8snw3ZBXOBOkWOy+BTMpa8dpZ3MqA6PMvekaBdWfKt6wJNe+GjOrZ44mR7NOlH85MWCTn6aplZ9cLm5aRv5VBKJOxDBzmOBlkeLWfTtJEjM/WqjnrMs3v0WIRBFdvKzgY5RS8AWyG4axrci3I2CPtvvloe9laxvXM6+1ukj8yrKQrGyh+vnPza0crIOZG0qgyhZJGVqE+aTuoVyjXfhoMzB7rQ6mvtrVvAOwVVx/H2tPSJJBxCqhAibXKuZfPjA4yXhqNbQQfS8JXxrHiDOmHjPMhm4+gFsq2hwYDTOzWPHLKYYG/EIBJzmd1lRunvIuMz92O2k/s5SWSn4jQe91gOUWGWW3eeEMwO6ietvolHpF7IWPoZFnNDmyW80HW3AZh5UTRzTYwLHrPRswbxpHgULx53HTUozQyYraTW/VnGmUj3Im1gVjNRV8zz73AmD0sHjVM1tud6HS4adP5f32QsepWw8htOIpOw4M1k0A4jWUGKVA5Q5WWU+q6u3ndkXDIEha4Bd5FJjmRoe+5db86va0nFpsEncYSdlS4rfniLrIUpFMMgEyorTBeH6vdOr0HmY0/ZrXKtCsz4DKdJMUTTZEHQIYFtK7rphEfvOUtz4/HfLuKFpmD38Wf6waXG4udKe3UQPV7jINPucSFd2/ovszcj8FVazab2Wh6gWCps659bji7NVsURRXbnux4UMrJCzucL/4u8pObCPeueeWKNL+afD0zW4WgUScRHuLeTS4tR/IOiVz33ZA/yllzfVHrfu4yY05y/oad8ARHgZyOvtrpXPEfRVahU1G952Ngi2bB2JfiL7/4y9NEVycRf65fVfZ54HRo07+ADAXDzd5dTaxy9+uHPQWNdfVoSjS0YV1hhtfa8ZDIxpvYXYF/GBmpbVM4xE6Xi4lhW0QJmHY4QWO86DJ3QpoqpjaifC7E/rp4vqN3a9KF/DCyqjt3UUGxDXXc3j1vtdoe5zU6+lJODtCjsbNgvZwzLSHNvUUSVvRmi/w0sgrttRioVW6sGYXJZk6YxYvr9bq+HvyJEdoWlKnfxxf9NDKyyP36E8DrZRNZVRpiBZQiW7+PL/lxZGSTVMeeVnGD+jH2zRL/CjK0r3JG5P7exYzqW56fR8a/ohur5skmI7dYbZ7/vVeYX0FGv2P5edc2vag9+X2YovwSMp5NJnn7jOHkBhJWRb+S/BYycaZMvF2jGZWuYoGeHrocv4dMRtYw9uo02WkbZOaPA/8uskpsR3VmXG/udFMuX51PU/cYTWyz3zgrXYbfUl/lK+JUCJPguo48L4qi68I3TGJYcFf+VFF+G7lY12fNqId7odWFM1BRfrdh/wX5D/lfkP+Q/wVByP+c/A+MGn3aUnw3dAAAAABJRU5ErkJggg==;" vertex="1" parent="1">
          <mxGeometry x="510" y="120" width="46.54" height="40" as="geometry" />
        </mxCell>
        <mxCell id="YpG3kHgkEUc7mpkCyyQj-34" value="" style="endArrow=none;dashed=1;html=1;dashPattern=1 3;strokeWidth=2;rounded=0;exitX=0.5;exitY=0;exitDx=0;exitDy=0;strokeColor=#FF0000;" edge="1" parent="1" source="YpG3kHgkEUc7mpkCyyQj-35">
          <mxGeometry width="50" height="50" relative="1" as="geometry">
            <mxPoint x="530" y="220" as="sourcePoint" />
            <mxPoint x="534" y="160" as="targetPoint" />
          </mxGeometry>
        </mxCell>
        <mxCell id="YpG3kHgkEUc7mpkCyyQj-35" value="&lt;b&gt;&lt;font color=&quot;#ff0000&quot;&gt;X&lt;/font&gt;&lt;/b&gt;" style="text;html=1;strokeColor=none;fillColor=none;align=center;verticalAlign=middle;whiteSpace=wrap;rounded=0;" vertex="1" parent="1">
          <mxGeometry x="503.27" y="190" width="60" height="37.94" as="geometry" />
        </mxCell>
        <mxCell id="YpG3kHgkEUc7mpkCyyQj-36" value="Blocked" style="text;html=1;strokeColor=none;fillColor=none;align=center;verticalAlign=middle;whiteSpace=wrap;rounded=0;fontColor=#FF3333;fontSize=10;" vertex="1" parent="1">
          <mxGeometry x="527" y="167.94" width="60" height="30" as="geometry" />
        </mxCell>
      </root>
    </mxGraphModel>
  </diagram>
</mxfile>
